<?xml version="1.0" encoding="utf-8"?>
<svg xmlns="http://www.w3.org/2000/svg" xmlns:xlink="http://www.w3.org/1999/xlink" style="margin: auto; background: none; display: block; shape-rendering: auto;" width="200px" height="200px" viewBox="0 0 100 100" preserveAspectRatio="xMidYMid">
<g transform="translate(50 50)">
<g>
<animateTransform attributeName="transform" type="rotate" values="0;40" keyTimes="0;1" dur="0.9615384615384615s" repeatCount="indefinite"></animateTransform><path d="M27.45450782658469 -5.5 L35.45450782658469 -5.5 L35.45450782658469 5.5 L27.45450782658469 5.5 A28 28 0 0 1 24.566705012397662 13.43417302381638 L24.566705012397662 13.43417302381638 L30.695060557349485 18.576473901308695 L23.624396850797552 27.00296277561745 L17.49604130584573 21.860661898125137 A28 28 0 0 1 10.183867894396053 26.082347185586833 L10.183867894396053 26.082347185586833 L11.573053315731498 33.9608092096845 L0.7401680325972104 35.870939164020726 L-0.6490173887382331 27.992477139923064 A28 28 0 0 1 -8.964114192477927 26.52630122622104 L-8.964114192477927 26.52630122622104 L-12.964114192477926 33.45450445649655 L-22.490393634106756 27.954504456496547 L-18.490393634106756 21.026301226221037 A28 28 0 0 1 -23.91768762365942 14.558304116106694 L-23.91768762365942 14.558304116106694 L-31.435228589946686 17.294465262712045 L-35.197450166529045 6.957846434067044 L-27.67990920024178 4.221685287461693 A28 28 0 0 1 -27.67990920024178 -4.221685287461686 L-27.67990920024178 -4.221685287461686 L-35.19745016652905 -6.9578464340670365 L-31.435228589946686 -17.29446526271204 L-23.91768762365942 -14.55830411610669 A28 28 0 0 1 -18.490393634106773 -21.026301226221026 L-18.490393634106773 -21.026301226221026 L-22.490393634106777 -27.954504456496533 L-12.964114192477943 -33.45450445649654 L-8.96411419247794 -26.526301226221033 A28 28 0 0 1 -0.6490173887382524 -27.992477139923064 L-0.6490173887382524 -27.992477139923064 L0.7401680325971876 -35.87093916402073 L11.573053315731489 -33.9608092096845 L10.183867894396048 -26.082347185586833 A28 28 0 0 1 17.496041305845715 -21.860661898125148 L17.496041305845715 -21.860661898125148 L23.624396850797538 -27.002962775617465 L30.695060557349482 -18.5764739013087 L24.56670501239766 -13.434173023816383 A28 28 0 0 1 27.45450782658469 -5.5000000000000115 M0 -20A20 20 0 1 0 0 20 A20 20 0 1 0 0 -20" fill="#474787"></path></g></g>
<!-- [ldio] generated by https://loading.io/ --></svg>